 <svg
  width="400"
  height="400"
  viewBox="0 0 80 80"
  fill="none"
  xmlns="http://www.w3.org/2000/svg"
 >
  <g clip-path="url(#clip0_1_2)">
    {/* GRIS */}
    <path
      d="M78.25 67.92C78.2519 68.7632 78.003 69.5879 77.5349 70.2892C77.0668 70.9905 76.4006 71.5367 75.6212 71.8583C74.8418 72.18 73.9843 72.2625 73.1578 72.0954C72.3314 71.9283 71.5733 71.5192 70.98 70.92L60.3 60.21C59.3994 60.9999 58.4287 61.7061 57.4 62.32L38.33 73.76H37.39L37 38.67C36.9821 36.9328 37.4673 35.2276 38.3971 33.7602C39.3269 32.2927 40.6616 31.1257 42.24 30.4L68.83 18.19L67 46.59C66.8496 48.857 66.3153 51.0819 65.42 53.17L77 64.93C77.7961 65.7218 78.2457 66.7971 78.25 67.92Z"
      fill="#3D3D3B"
    />
  </g>
  <defs>
    <clipPath id="clip0_1_2">
      <rect width="207.92" height="73.76" fill="white" />
    </clipPath>
  </defs>
</svg>