<svg width="208" height="74" viewBox="0 0 208 74" fill="none" xmlns="http://www.w3.org/2000/svg">
<g id="Logo Color" clip-path="url(#clip0_1_2)">
<path id="Vector" d="M107.62 28.8C107.913 29.1007 108.141 29.4581 108.29 29.8502C108.44 30.2422 108.508 30.6607 108.49 31.08V58.56C108.502 58.9741 108.431 59.3864 108.282 59.7728C108.133 60.1592 107.908 60.5118 107.62 60.81C107.179 61.2618 106.612 61.571 105.993 61.6976C105.374 61.8241 104.732 61.7624 104.148 61.5202C103.565 61.278 103.067 60.8665 102.72 60.3389C102.373 59.8112 102.192 59.1916 102.2 58.56V57.88C100.864 59.1927 99.2706 60.2142 97.52 60.88C95.6793 61.62 93.7138 62.0002 91.73 62C89.0678 62.0399 86.4391 61.4033 84.09 60.15C81.8303 58.9156 79.9862 57.0402 78.79 54.76C77.453 52.1201 76.7965 49.188 76.88 46.23V31.08C76.8559 30.6521 76.9193 30.2237 77.0664 29.8212C77.2136 29.4186 77.4413 29.0503 77.7357 28.7388C78.0302 28.4273 78.385 28.1792 78.7787 28.0096C79.1723 27.8401 79.5964 27.7526 80.025 27.7526C80.4536 27.7526 80.8777 27.8401 81.2713 28.0096C81.665 28.1792 82.0198 28.4273 82.3143 28.7388C82.6087 29.0503 82.8364 29.4186 82.9835 29.8212C83.1307 30.2237 83.1941 30.6521 83.17 31.08V46.24C83.17 49.57 84.06 52.08 85.85 53.79C86.8145 54.6659 87.9429 55.3422 89.17 55.7799C90.3972 56.2175 91.6989 56.4079 93 56.34C94.6304 56.3623 96.2434 56.0027 97.71 55.29C99.0388 54.6559 100.174 53.6791 101 52.46C101.798 51.2798 102.216 49.8844 102.2 48.46V31.08C102.181 30.658 102.251 30.2368 102.407 29.8439C102.562 29.451 102.798 29.0953 103.1 28.8C103.723 28.2461 104.527 27.9402 105.36 27.9402C106.193 27.9402 106.997 28.2461 107.62 28.8Z" fill="#3D3D3B"/>
<path id="Vector_2" d="M145.79 30C148.199 31.4933 150.159 33.6117 151.46 36.13C152.852 38.8237 153.559 41.8184 153.52 44.85C153.559 47.9012 152.793 50.9088 151.3 53.57C149.856 56.1436 147.737 58.2737 145.17 59.73C142.541 61.2451 139.554 62.0289 136.52 62C133.541 62.0435 130.605 61.2859 128.019 59.8064C125.433 58.327 123.292 56.18 121.82 53.59C120.312 50.934 119.539 47.924 119.58 44.87V16.73C119.56 16.3088 119.629 15.888 119.782 15.4951C119.935 15.1022 120.17 14.7461 120.47 14.45C121.094 13.8954 121.9 13.5891 122.735 13.5891C123.57 13.5891 124.376 13.8954 125 14.45C125.289 14.7529 125.514 15.1109 125.662 15.5026C125.81 15.8943 125.877 16.3117 125.86 16.73V33.36C128.236 30.5154 131.55 28.6135 135.204 27.9974C138.859 27.3813 142.613 28.0915 145.79 30ZM142.09 54.92C143.745 53.9033 145.096 52.4593 146 50.74C146.973 48.9202 147.468 46.8834 147.44 44.82C147.47 42.7691 146.975 40.7447 146 38.94C145.074 37.2362 143.711 35.8105 142.05 34.81C140.36 33.8165 138.435 33.2926 136.475 33.2926C134.515 33.2926 132.59 33.8165 130.9 34.81C129.25 35.8078 127.902 37.2353 127 38.94C126.036 40.748 125.547 42.7713 125.58 44.82C125.55 46.8811 126.038 48.9168 127 50.74C127.698 52.0198 128.646 53.146 129.789 54.0515C130.931 54.957 132.244 55.6232 133.649 56.0105C135.055 56.3978 136.524 56.4981 137.969 56.3056C139.414 56.1131 140.805 55.6317 142.06 54.89L142.09 54.92Z" fill="#3D3D3B"/>
<path id="Vector_3" d="M163.78 21.32C163.397 20.9473 163.093 20.5018 162.886 20.0098C162.678 19.5177 162.571 18.989 162.571 18.455C162.571 17.9209 162.678 17.3923 162.886 16.9002C163.093 16.4082 163.397 15.9627 163.78 15.59C164.349 15.0279 165.071 14.646 165.856 14.4919C166.641 14.3377 167.453 14.4183 168.193 14.7234C168.932 15.0285 169.565 15.5447 170.013 16.2075C170.461 16.8702 170.703 17.6502 170.71 18.45C170.714 19.2549 170.479 20.0429 170.034 20.7134C169.588 21.3838 168.953 21.9064 168.21 22.2144C167.466 22.5224 166.647 22.6018 165.859 22.4425C165.07 22.2832 164.346 21.8924 163.78 21.32ZM164.39 60.81C164.097 60.5145 163.868 60.1628 163.715 59.7761C163.562 59.3894 163.489 58.9757 163.5 58.56V31.14C163.481 30.7204 163.551 30.3015 163.704 29.9105C163.857 29.5195 164.091 29.165 164.39 28.87C164.688 28.5824 165.041 28.3574 165.427 28.208C165.814 28.0586 166.226 27.9879 166.64 28C167.058 27.98 167.475 28.0475 167.865 28.1983C168.255 28.349 168.609 28.5796 168.905 28.8752C169.2 29.1709 169.431 29.5251 169.582 29.9151C169.732 30.3051 169.8 30.7224 169.78 31.14V58.56C169.794 58.9735 169.725 59.3855 169.577 59.7719C169.43 60.1584 169.206 60.5113 168.92 60.81C168.624 61.1103 168.268 61.3447 167.875 61.4981C167.482 61.6514 167.061 61.7202 166.64 61.7C166.224 61.7112 165.811 61.6382 165.424 61.4852C165.037 61.3322 164.686 61.1026 164.39 60.81Z" fill="#3D3D3B"/>
<path id="Vector_4" d="M207.92 59.11C207.928 59.455 207.864 59.798 207.731 60.1166C207.598 60.4352 207.4 60.7225 207.15 60.96C206.882 61.2098 206.568 61.4039 206.224 61.531C205.881 61.658 205.516 61.7155 205.15 61.7C204.728 61.7255 204.306 61.6478 203.921 61.4735C203.536 61.2993 203.199 61.0338 202.94 60.7L193.13 49L183.83 60.71C183.55 61.0226 183.208 61.2731 182.826 61.4453C182.444 61.6176 182.029 61.7078 181.61 61.71C181.253 61.7309 180.895 61.6757 180.561 61.5482C180.226 61.4206 179.923 61.2236 179.67 60.97C179.435 60.724 179.251 60.4338 179.13 60.1162C179.008 59.7986 178.95 59.46 178.96 59.12C178.968 58.2822 179.273 57.4743 179.82 56.84L189.37 44.89L179.21 32.89C178.628 32.2474 178.298 31.4165 178.28 30.55C178.27 29.8829 178.526 29.2392 178.99 28.76C179.254 28.5054 179.568 28.3082 179.913 28.1808C180.257 28.0535 180.624 27.9987 180.99 28.02C181.435 28.0023 181.877 28.088 182.283 28.2701C182.689 28.4523 183.048 28.7261 183.33 29.07L193.43 41.15L202.49 29.07C202.755 28.7177 203.102 28.4359 203.501 28.2493C203.901 28.0627 204.34 27.9771 204.78 28C205.14 27.983 205.499 28.0428 205.833 28.1756C206.168 28.3084 206.47 28.511 206.72 28.77C207.187 29.283 207.438 29.9565 207.42 30.65C207.427 31.5479 207.123 32.4206 206.56 33.12L197.26 45.25L207.06 57C207.608 57.5664 207.916 58.3222 207.92 59.11Z" fill="#3D3D3B"/>
<path id="Vector_5" d="M30.32 0.770002L4.12 10.46L26.76 20.53C29.1583 21.6051 31.7568 22.1609 34.385 22.1609C37.0132 22.1609 39.6117 21.6051 42.01 20.53L66 9.74L38.51 0.630002C35.8441 -0.259615 32.954 -0.210212 30.32 0.770002Z" fill="#0892A8"/>
<path id="Vector_6" d="M78.25 67.92C78.2519 68.7632 78.003 69.5879 77.5349 70.2892C77.0668 70.9905 76.4006 71.5367 75.6212 71.8583C74.8418 72.18 73.9843 72.2625 73.1578 72.0954C72.3314 71.9283 71.5733 71.5192 70.98 70.92L60.3 60.21C59.3994 60.9999 58.4287 61.7061 57.4 62.32L38.33 73.76H37.39L37 38.67C36.9821 36.9328 37.4673 35.2276 38.3971 33.7602C39.3269 32.2927 40.6616 31.1257 42.24 30.4L68.83 18.19L67 46.59C66.8496 48.857 66.3153 51.0819 65.42 53.17L77 64.93C77.7961 65.7218 78.2457 66.7971 78.25 67.92Z" fill="#3D3D3B"/>
<path id="Vector_7" d="M31.08 41.11L31.45 73.76L10.83 61C8.4735 59.5497 6.48916 57.5679 5.03576 55.2133C3.58236 52.8587 2.70025 50.1966 2.46 47.44L0 18.65L22.92 28.75C25.3238 29.8085 27.3718 31.5372 28.8189 33.7292C30.266 35.9211 31.051 38.4836 31.08 41.11Z" fill="#EB6509"/>
</g>
<defs>
<clipPath id="clip0_1_2">
<rect width="207.92" height="73.76" fill="white"/>
</clipPath>
</defs>
</svg>
