<svg width="74" height="74" viewBox="0 0 78 74" fill="none" xmlns="http://www.w3.org/2000/svg">
<g id="Logo Color" clip-path="url(#clip0_1_2)">
<path id="Vector_5" d="M30.32 0.770002L4.12 10.46L26.76 20.53C29.1583 21.6051 31.7568 22.1609 34.385 22.1609C37.0132 22.1609 39.6117 21.6051 42.01 20.53L66 9.74L38.51 0.630002C35.8441 -0.259615 32.954 -0.210212 30.32 0.770002Z" fill="#0892A8"/>
<path id="Vector_6" d="M78.25 67.92C78.2519 68.7632 78.003 69.5879 77.5349 70.2892C77.0668 70.9905 76.4006 71.5367 75.6212 71.8583C74.8418 72.18 73.9843 72.2625 73.1578 72.0954C72.3314 71.9283 71.5733 71.5192 70.98 70.92L60.3 60.21C59.3994 60.9999 58.4287 61.7061 57.4 62.32L38.33 73.76H37.39L37 38.67C36.9821 36.9328 37.4673 35.2276 38.3971 33.7602C39.3269 32.2927 40.6616 31.1257 42.24 30.4L68.83 18.19L67 46.59C66.8496 48.857 66.3153 51.0819 65.42 53.17L77 64.93C77.7961 65.7218 78.2457 66.7971 78.25 67.92Z" fill="#3D3D3B"/>
<path id="Vector_7" d="M31.08 41.11L31.45 73.76L10.83 61C8.4735 59.5497 6.48916 57.5679 5.03576 55.2133C3.58236 52.8587 2.70025 50.1966 2.46 47.44L0 18.65L22.92 28.75C25.3238 29.8085 27.3718 31.5372 28.8189 33.7292C30.266 35.9211 31.051 38.4836 31.08 41.11Z" fill="#EB6509"/>
</g>
<defs>
<clipPath id="clip0_1_2">
<rect width="207.92" height="73.76" fill="white"/>
</clipPath>
</defs>
</svg>